<svg xmlns="http://www.w3.org/2000/svg" width="179.281" height="47" viewBox="0 0 179.281 47"><g transform="translate(53.646 36.77)"><path d="M244.713,483.072v.611a2.207,2.207,0,0,1-.174.869,2.41,2.41,0,0,1-.48.73,2.316,2.316,0,0,1-.716.507,2.1,2.1,0,0,1-.883.187,3.171,3.171,0,0,1-.82-.111,1.932,1.932,0,0,1-.751-.389,2.147,2.147,0,0,1-.549-.716,2.532,2.532,0,0,1-.215-1.119v-5.448a2.409,2.409,0,0,1,.167-.9,2.133,2.133,0,0,1,.473-.723,2.2,2.2,0,0,1,.73-.479,2.449,2.449,0,0,1,.938-.174,2.151,2.151,0,0,1,1.626.653,2.337,2.337,0,0,1,.48.758,2.564,2.564,0,0,1,.174.952v.556h-1.418v-.473a1.149,1.149,0,0,0-.236-.723.766.766,0,0,0-.639-.306.721.721,0,0,0-.7.327,1.749,1.749,0,0,0-.173.827v5.059a1.31,1.31,0,0,0,.187.723.74.74,0,0,0,.674.292,1.029,1.029,0,0,0,.3-.049.9.9,0,0,0,.3-.16.847.847,0,0,0,.209-.306,1.235,1.235,0,0,0,.083-.486v-.486Z" transform="translate(-240.126 -475.914)" fill="#171219"/><path d="M268.842,478.333a2.534,2.534,0,0,1,.209-1.056,2.234,2.234,0,0,1,.556-.764,2.344,2.344,0,0,1,.758-.445,2.523,2.523,0,0,1,2.481.445,2.327,2.327,0,0,1,.542.764,2.534,2.534,0,0,1,.208,1.056v5.226a2.51,2.51,0,0,1-.208,1.07,2.2,2.2,0,0,1-.542.736,2.375,2.375,0,0,1-.771.459,2.466,2.466,0,0,1-1.709,0,2.219,2.219,0,0,1-.758-.459,2.12,2.12,0,0,1-.556-.736,2.509,2.509,0,0,1-.209-1.07Zm1.418,5.226a.943.943,0,0,0,.285.758,1.056,1.056,0,0,0,1.348,0,.943.943,0,0,0,.285-.758v-5.226a.943.943,0,0,0-.285-.758,1.056,1.056,0,0,0-1.348,0,.943.943,0,0,0-.285.758Z" transform="translate(-260.419 -475.914)" fill="#171219"/><path d="M298.555,486.094v-9.9h1.362l2.141,5.963h.028V476.2H303.5v9.9h-1.334L300,480.146h-.028v5.949Z" transform="translate(-281.417 -476.115)" fill="#171219"/><path d="M333.132,478.847h-1.418v-.32a1.515,1.515,0,0,0-.229-.841.849.849,0,0,0-.771-.354.893.893,0,0,0-.473.111.933.933,0,0,0-.292.278,1.176,1.176,0,0,0-.153.41,2.64,2.64,0,0,0-.042.48,4.651,4.651,0,0,0,.021.486.924.924,0,0,0,.1.348.771.771,0,0,0,.243.264,2.216,2.216,0,0,0,.438.223l1.084.431a2.68,2.68,0,0,1,.764.424,1.833,1.833,0,0,1,.459.563,2.652,2.652,0,0,1,.209.758,7.518,7.518,0,0,1,.055.966,5.081,5.081,0,0,1-.125,1.16,2.441,2.441,0,0,1-.4.91,2,2,0,0,1-.764.612,2.7,2.7,0,0,1-1.154.222,2.525,2.525,0,0,1-.959-.18,2.279,2.279,0,0,1-.765-.5,2.436,2.436,0,0,1-.507-.744,2.255,2.255,0,0,1-.188-.924V483.1h1.418v.445a1.158,1.158,0,0,0,.229.7.894.894,0,0,0,.771.313,1.243,1.243,0,0,0,.563-.1.747.747,0,0,0,.313-.3,1.1,1.1,0,0,0,.132-.466q.021-.271.021-.6a6.019,6.019,0,0,0-.028-.639,1.1,1.1,0,0,0-.111-.4.786.786,0,0,0-.257-.25,3.337,3.337,0,0,0-.424-.209l-1.015-.417a2.247,2.247,0,0,1-1.23-.994,3.418,3.418,0,0,1-.313-1.55,3.594,3.594,0,0,1,.153-1.057,2.407,2.407,0,0,1,.459-.862,2.1,2.1,0,0,1,.744-.577,2.479,2.479,0,0,1,1.077-.216,2.348,2.348,0,0,1,.966.195,2.494,2.494,0,0,1,.758.514,2.148,2.148,0,0,1,.639,1.529Z" transform="translate(-302.415 -475.914)" fill="#171219"/><path d="M357.107,486.094v-8.562h-1.64V476.2h4.7v1.335h-1.64v8.562Z" transform="translate(-321.637 -476.115)" fill="#171219"/><path d="M383.047,486.094v-9.9h2.279q2.5,0,2.5,2.905a3.658,3.658,0,0,1-.271,1.487,2.1,2.1,0,0,1-.952.987l1.529,4.517h-1.5l-1.32-4.225h-.848v4.225Zm1.418-8.562v3.086h.806a1.427,1.427,0,0,0,.6-.1.811.811,0,0,0,.347-.3,1.357,1.357,0,0,0,.153-.48,5.292,5.292,0,0,0,0-1.32,1.319,1.319,0,0,0-.167-.493,1.128,1.128,0,0,0-1-.389Z" transform="translate(-341.127 -476.115)" fill="#171219"/><path d="M417.252,476.2v7.673a2.239,2.239,0,0,1-.667,1.626,2.363,2.363,0,0,1-.736.5,2.218,2.218,0,0,1-.89.18,2.167,2.167,0,0,1-.883-.18,2.413,2.413,0,0,1-1.23-1.23,2.2,2.2,0,0,1-.181-.9V476.2h1.418v7.534a1.063,1.063,0,0,0,.25.778.907.907,0,0,0,1.251,0,1.063,1.063,0,0,0,.25-.778V476.2Z" transform="translate(-362.058 -476.115)" fill="#171219"/><path d="M446.585,483.072v.611a2.207,2.207,0,0,1-.174.869,2.41,2.41,0,0,1-.48.73,2.313,2.313,0,0,1-.716.507,2.1,2.1,0,0,1-.883.187,3.171,3.171,0,0,1-.82-.111,1.932,1.932,0,0,1-.751-.389,2.148,2.148,0,0,1-.549-.716,2.533,2.533,0,0,1-.215-1.119v-5.448a2.409,2.409,0,0,1,.167-.9,2.133,2.133,0,0,1,.472-.723,2.2,2.2,0,0,1,.73-.479,2.45,2.45,0,0,1,.938-.174,2.151,2.151,0,0,1,1.626.653,2.337,2.337,0,0,1,.48.758,2.564,2.564,0,0,1,.174.952v.556h-1.418v-.473a1.149,1.149,0,0,0-.236-.723.766.766,0,0,0-.639-.306.721.721,0,0,0-.7.327,1.749,1.749,0,0,0-.173.827v5.059a1.312,1.312,0,0,0,.187.723.74.74,0,0,0,.674.292,1.029,1.029,0,0,0,.3-.049.9.9,0,0,0,.3-.16.847.847,0,0,0,.209-.306,1.235,1.235,0,0,0,.083-.486v-.486Z" transform="translate(-382.787 -475.914)" fill="#171219"/><path d="M470.222,486.094v-8.562h-1.64V476.2h4.7v1.335h-1.64v8.562Z" transform="translate(-401.574 -476.115)" fill="#171219"/><path d="M496.3,486.094v-9.9h1.418v9.9Z" transform="translate(-421.165 -476.115)" fill="#171219"/><path d="M514.974,478.333a2.534,2.534,0,0,1,.209-1.056,2.234,2.234,0,0,1,.556-.764,2.345,2.345,0,0,1,.758-.445,2.523,2.523,0,0,1,2.481.445,2.325,2.325,0,0,1,.542.764,2.529,2.529,0,0,1,.209,1.056v5.226a2.505,2.505,0,0,1-.209,1.07,2.2,2.2,0,0,1-.542.736,2.375,2.375,0,0,1-.771.459,2.466,2.466,0,0,1-1.709,0,2.22,2.22,0,0,1-.758-.459,2.12,2.12,0,0,1-.556-.736,2.51,2.51,0,0,1-.209-1.07Zm1.418,5.226a.942.942,0,0,0,.285.758,1.056,1.056,0,0,0,1.348,0,.943.943,0,0,0,.285-.758v-5.226a.943.943,0,0,0-.285-.758,1.056,1.056,0,0,0-1.348,0,.942.942,0,0,0-.285.758Z" transform="translate(-434.359 -475.914)" fill="#171219"/><path d="M544.687,486.094v-9.9h1.362l2.141,5.963h.028V476.2h1.418v9.9H548.3l-2.168-5.949H546.1v5.949Z" transform="translate(-455.357 -476.115)" fill="#171219"/><path d="M593.306,478.333a2.533,2.533,0,0,1,.209-1.056,2.233,2.233,0,0,1,.556-.764,2.346,2.346,0,0,1,.758-.445,2.523,2.523,0,0,1,2.481.445,2.322,2.322,0,0,1,.542.764,2.53,2.53,0,0,1,.208,1.056v5.226a2.305,2.305,0,0,1-.208,1.015l.876.709-.723.862-.834-.681a2.3,2.3,0,0,1-1.487.514,2.5,2.5,0,0,1-.855-.153,2.221,2.221,0,0,1-.758-.459,2.12,2.12,0,0,1-.556-.736,2.509,2.509,0,0,1-.209-1.07Zm1.418,5.226a.943.943,0,0,0,.285.758,1.007,1.007,0,0,0,.674.243.692.692,0,0,0,.306-.056l-.64-.514.723-.862.57.458v-5.254a.943.943,0,0,0-.285-.758,1.056,1.056,0,0,0-1.348,0,.943.943,0,0,0-.285.758Z" transform="translate(-489.716 -475.914)" fill="#171219"/><path d="M623.208,486.094v-9.9h1.418v4.24h1.751V476.2h1.418v9.9h-1.418v-4.406h-1.751v4.406Z" transform="translate(-510.847 -476.115)" fill="#171219"/><path d="M656.744,478.847h-1.418v-.32a1.513,1.513,0,0,0-.229-.841.848.848,0,0,0-.771-.354.893.893,0,0,0-.473.111.933.933,0,0,0-.292.278,1.175,1.175,0,0,0-.153.41,2.673,2.673,0,0,0-.042.48,4.623,4.623,0,0,0,.021.486.918.918,0,0,0,.1.348.766.766,0,0,0,.243.264,2.2,2.2,0,0,0,.438.223l1.084.431a2.684,2.684,0,0,1,.765.424,1.833,1.833,0,0,1,.459.563,2.642,2.642,0,0,1,.209.758,7.513,7.513,0,0,1,.055.966,5.1,5.1,0,0,1-.125,1.16,2.443,2.443,0,0,1-.4.91,2,2,0,0,1-.765.612,2.7,2.7,0,0,1-1.154.222,2.527,2.527,0,0,1-.959-.18,2.275,2.275,0,0,1-.764-.5,2.432,2.432,0,0,1-.507-.744,2.254,2.254,0,0,1-.187-.924V483.1H653.3v.445a1.156,1.156,0,0,0,.229.7.893.893,0,0,0,.771.313,1.244,1.244,0,0,0,.563-.1.747.747,0,0,0,.313-.3,1.1,1.1,0,0,0,.132-.466q.021-.271.021-.6a6.1,6.1,0,0,0-.028-.639,1.106,1.106,0,0,0-.111-.4.787.787,0,0,0-.257-.25,3.333,3.333,0,0,0-.424-.209l-1.015-.417a2.248,2.248,0,0,1-1.23-.994,3.418,3.418,0,0,1-.313-1.55,3.6,3.6,0,0,1,.153-1.057,2.407,2.407,0,0,1,.459-.862,2.105,2.105,0,0,1,.744-.577,2.479,2.479,0,0,1,1.077-.216,2.349,2.349,0,0,1,.966.195,2.5,2.5,0,0,1,.758.514,2.148,2.148,0,0,1,.639,1.529Z" transform="translate(-531.109 -475.914)" fill="#171219"/></g><path d="M63.3,358.132a23.261,23.261,0,1,1,34.364,31.36.93.93,0,0,1-1.374-1.254A21.43,21.43,0,1,0,80.527,395.2l-.257-5.607a15.785,15.785,0,1,1,11.894-5.118.931.931,0,0,1-1.375-1.254,14.034,14.034,0,1,0-10.6,4.514l-.255-5.606a8.34,8.34,0,1,1,6.736-2.671.93.93,0,1,1-1.375-1.254,6.58,6.58,0,1,0-5.447,2.066l-.294-6.413a.931.931,0,1,1,1.861-.085l1.02,22.321a.93.93,0,0,1-.887.972A23.274,23.274,0,0,1,63.3,358.132Z" transform="translate(-57.224 -350.55)" fill="#ea8223"/><g transform="translate(53.063 0.654)"><path d="M249.31,374.8a3.369,3.369,0,0,0-.783-2.247,10.256,10.256,0,0,0-1.959-1.752q-1.176-.825-2.556-1.691a15,15,0,0,1-2.556-2.02,10.1,10.1,0,0,1-1.959-2.722,8.508,8.508,0,0,1-.783-3.834,8.888,8.888,0,0,1,.639-3.567,6.361,6.361,0,0,1,1.752-2.391,7.083,7.083,0,0,1,2.639-1.361,11.884,11.884,0,0,1,3.258-.433,17.681,17.681,0,0,1,3.917.412,10.634,10.634,0,0,1,3.01,1.113l-1.608,4.577a7.372,7.372,0,0,0-2.083-.907,10.433,10.433,0,0,0-2.989-.412,4.019,4.019,0,0,0-2.474.66,2.286,2.286,0,0,0-.866,1.938,2.991,2.991,0,0,0,.784,2.041,11.069,11.069,0,0,0,1.959,1.711q1.175.825,2.556,1.711a15.3,15.3,0,0,1,2.557,2.062,10.361,10.361,0,0,1,1.959,2.763,8.45,8.45,0,0,1,.783,3.773,10.253,10.253,0,0,1-.639,3.794,6.945,6.945,0,0,1-1.814,2.659,7.777,7.777,0,0,1-2.825,1.588,11.843,11.843,0,0,1-3.67.536,18.024,18.024,0,0,1-4.474-.495,11.453,11.453,0,0,1-2.949-1.113l1.691-4.659a12.211,12.211,0,0,0,2.268.99,9.47,9.47,0,0,0,3.093.495Q249.31,378.016,249.31,374.8Z" transform="translate(-238.136 -352.781)" fill="#5ca3b7"/><path d="M302.8,356.188a2.8,2.8,0,0,1,.783-2.041,2.965,2.965,0,0,1,2.226-.8,3.314,3.314,0,0,1,2.309.783,2.649,2.649,0,0,1,.866,2.062,2.521,2.521,0,0,1-.866,2.02,3.428,3.428,0,0,1-2.309.742,3.058,3.058,0,0,1-2.226-.763A2.664,2.664,0,0,1,302.8,356.188ZM303.34,362h4.907v20.617H303.34Z" transform="translate(-283.836 -353.178)" fill="#5ca3b7"/><path d="M329.373,369.851h2.268v-3.876l4.907-1.526v5.4h4v4.371h-4v8.989a6.4,6.4,0,0,0,.35,2.515,1.27,1.27,0,0,0,1.257.742,4.587,4.587,0,0,0,1.113-.124,7.165,7.165,0,0,0,1.072-.371l.619,3.917a10.676,10.676,0,0,1-2.1.763,10.012,10.012,0,0,1-2.516.309,4.406,4.406,0,0,1-3.525-1.361q-1.175-1.36-1.175-4.577v-10.8h-2.268Z" transform="translate(-302.612 -361.027)" fill="#5ca3b7"/><path d="M387.911,400.566a7.915,7.915,0,0,1-2.8,1.484,11.922,11.922,0,0,1-3.711.577,8.457,8.457,0,0,1-3.69-.742,6.49,6.49,0,0,1-2.536-2.144,9.707,9.707,0,0,1-1.464-3.4,19.806,19.806,0,0,1-.474-4.556q0-5.566,2.206-8.226a7.518,7.518,0,0,1,6.123-2.659,8.419,8.419,0,0,1,2.556.392,5.607,5.607,0,0,1,2.206,1.32,6.723,6.723,0,0,1,1.567,2.474,10.914,10.914,0,0,1,.6,3.9q0,.908-.1,1.938t-.309,2.227h-10.02a6.99,6.99,0,0,0,1.073,3.917,3.659,3.659,0,0,0,3.175,1.361,6.78,6.78,0,0,0,2.412-.412,6.411,6.411,0,0,0,1.67-.866ZM381.479,385.1a2.586,2.586,0,0,0-2.35,1.258,7.456,7.456,0,0,0-.907,3.525h5.69a7.25,7.25,0,0,0-.495-3.567A2.042,2.042,0,0,0,381.479,385.1Z" transform="translate(-333.607 -372.651)" fill="#5ca3b7"/><path d="M455.678,374.8a3.368,3.368,0,0,0-.783-2.247,10.264,10.264,0,0,0-1.958-1.752q-1.176-.825-2.557-1.691a15,15,0,0,1-2.556-2.02,10.1,10.1,0,0,1-1.959-2.722,8.508,8.508,0,0,1-.783-3.834,8.889,8.889,0,0,1,.639-3.567,6.359,6.359,0,0,1,1.753-2.391,7.079,7.079,0,0,1,2.639-1.361,11.882,11.882,0,0,1,3.258-.433,17.684,17.684,0,0,1,3.917.412,10.628,10.628,0,0,1,3.01,1.113l-1.608,4.577a7.372,7.372,0,0,0-2.082-.907,10.432,10.432,0,0,0-2.989-.412,4.019,4.019,0,0,0-2.474.66,2.287,2.287,0,0,0-.866,1.938,2.991,2.991,0,0,0,.784,2.041,11.068,11.068,0,0,0,1.959,1.711q1.175.825,2.556,1.711a15.3,15.3,0,0,1,2.556,2.062,10.361,10.361,0,0,1,1.959,2.763,8.45,8.45,0,0,1,.783,3.773,10.247,10.247,0,0,1-.639,3.794,6.945,6.945,0,0,1-1.814,2.659,7.777,7.777,0,0,1-2.825,1.588,11.843,11.843,0,0,1-3.67.536,18.025,18.025,0,0,1-4.474-.495,11.447,11.447,0,0,1-2.948-1.113l1.691-4.659a12.206,12.206,0,0,0,2.268.99,9.468,9.468,0,0,0,3.093.495Q455.678,378.016,455.678,374.8Z" transform="translate(-383.975 -352.781)" fill="#5ca3b7"/><path d="M519.968,401.078a6.967,6.967,0,0,1-2.474,1.237,10.478,10.478,0,0,1-2.886.412,7.393,7.393,0,0,1-3.526-.763,6.214,6.214,0,0,1-2.33-2.185,9.8,9.8,0,0,1-1.3-3.422,23.3,23.3,0,0,1-.392-4.474q0-5.4,1.938-8.123a6.541,6.541,0,0,1,5.69-2.722,11.5,11.5,0,0,1,3.031.33,10,10,0,0,1,2.082.824l-1.154,4.082a7.792,7.792,0,0,0-1.423-.557,6.245,6.245,0,0,0-1.629-.185,2.812,2.812,0,0,0-2.6,1.5,13.083,13.083,0,0,0,.021,9.422,2.954,2.954,0,0,0,2.824,1.773,5.042,5.042,0,0,0,1.753-.268,6.45,6.45,0,0,0,1.34-.68Z" transform="translate(-428.184 -372.75)" fill="#5ca3b7"/><path d="M556.253,383.109a11.193,11.193,0,0,1,3.093-1.2,17.78,17.78,0,0,1,4.206-.453q3.5,0,4.886,1.814a8.368,8.368,0,0,1,1.381,5.154q0,1.938-.1,3.814t-.145,3.67q-.041,1.794.062,3.464a13.582,13.582,0,0,0,.557,3.154h-4l-.784-2.515h-.165a5.547,5.547,0,0,1-1.856,1.979,5.388,5.388,0,0,1-3.01.783,4.793,4.793,0,0,1-3.835-1.628,6.437,6.437,0,0,1-1.4-4.35q0-3.711,2.639-5.278a12.543,12.543,0,0,1,7.134-1.32,7.123,7.123,0,0,0-.309-3.464,2.2,2.2,0,0,0-2.206-1.072,11.992,11.992,0,0,0-2.556.289,9.476,9.476,0,0,0-2.35.825Zm5.9,15.463a2.829,2.829,0,0,0,1.814-.556,3.673,3.673,0,0,0,1.031-1.217v-3.422a8.1,8.1,0,0,0-1.814-.041,4.992,4.992,0,0,0-1.526.371,2.459,2.459,0,0,0-1.051.845,2.413,2.413,0,0,0-.392,1.423,3.1,3.1,0,0,0,.516,1.938A1.7,1.7,0,0,0,562.15,398.572Z" transform="translate(-462.16 -373.048)" fill="#5ca3b7"/><path d="M627.08,402.29V389.755a6.71,6.71,0,0,0-.536-3.175,1.937,1.937,0,0,0-1.814-.907,2.789,2.789,0,0,0-1.855.66,3.6,3.6,0,0,0-1.113,1.65V402.29h-4.907V381.673h3.917l.577,2.392h.124a6.653,6.653,0,0,1,2.021-2.041,5.958,5.958,0,0,1,3.34-.846,6.132,6.132,0,0,1,2.206.371,3.732,3.732,0,0,1,1.629,1.216,5.786,5.786,0,0,1,.99,2.268,15.926,15.926,0,0,1,.33,3.526V402.29Z" transform="translate(-505.773 -372.849)" fill="#5ca3b7"/></g></svg>